<svg width="24" height="24" viewBox="0 0 24 24" fill="none" xmlns="http://www.w3.org/2000/svg">
<path d="M17 21.25H7C3.35 21.25 1.25 19.15 1.25 15.5V8.5C1.25 4.85 3.35 2.75 7 2.75H17C20.65 2.75 22.75 4.85 22.75 8.5V15.5C22.75 19.15 20.65 21.25 17 21.25ZM7 4.25C4.14 4.25 2.75 5.64 2.75 8.5V15.5C2.75 18.36 4.14 19.75 7 19.75H17C19.86 19.75 21.25 18.36 21.25 15.5V8.5C21.25 5.64 19.86 4.25 17 4.25H7Z" fill="#7C838B"/>
<path d="M9.97575 11.6925L9.97577 11.6924L9.97182 11.6893L6.84385 9.19092C6.72844 9.0961 6.72097 8.93988 6.79784 8.84526C6.89256 8.72869 7.04954 8.72089 7.14449 8.79803L7.14448 8.79804L7.14774 8.80065L10.2768 11.2999C10.2769 11.3 10.2771 11.3001 10.2772 11.3002C10.7618 11.689 11.3909 11.8675 11.9948 11.8675C12.5987 11.8675 13.2277 11.689 13.7123 11.3003C13.7124 11.3002 13.7126 11.3 13.7127 11.2999L16.8418 8.80065L16.8418 8.80067L16.8451 8.79803C16.9526 8.71064 17.1074 8.73449 17.1812 8.8319L17.1864 8.83867L17.1917 8.84527C17.2791 8.95283 17.2553 9.10763 17.1579 9.18143L17.1578 9.18129L17.1477 9.18929L14.0177 11.6893L14.0177 11.6892L14.0109 11.6949C13.4747 12.1389 12.7431 12.37 11.9998 12.37C11.2573 12.37 10.5238 12.1393 9.97575 11.6925Z" fill="#292D32" stroke="#7C838B"/>
</svg>
