<svg width="170" height="103" viewBox="0 0 170 103" fill="none" xmlns="http://www.w3.org/2000/svg">
<path d="M96.8537 74.5738C95.9209 74.4405 94.0552 73.6143 94.0552 71.3755C94.0552 69.1366 95.9209 68.3104 96.8537 68.1771C98.0531 68.0439 100.452 68.497 100.452 71.3755C100.452 74.254 98.0531 74.7071 96.8537 74.5738Z" fill="#323C50"/>
<path d="M70.1967 82.2395C70.1052 81.7769 70.4754 81.3703 70.947 81.3703H86.7791C87.2507 81.3703 87.6209 81.7769 87.5294 82.2395C86.9468 85.1849 84.6501 89.7659 78.8631 89.7659C73.076 89.7659 70.7793 85.1849 70.1967 82.2395Z" fill="#323C50"/>
<path d="M61.2722 74.5738C60.3393 74.4405 58.4736 73.6143 58.4736 71.3755C58.4736 69.1366 60.3393 68.3104 61.2722 68.1771C62.4715 68.0439 64.8703 68.497 64.8703 71.3755C64.8703 74.254 62.4715 74.7071 61.2722 74.5738Z" fill="#323C50"/>
<path fill-rule="evenodd" clip-rule="evenodd" d="M26.4901 23.0005C20.733 23.0005 20.0934 27.5315 20.4932 29.797L23.6534 62.9798L24.6241 73.1718L26.8898 96.9622C27.5295 100.8 31.1543 101.76 32.8868 101.76H141.231C141.881 101.76 142.465 101.683 142.99 101.545C146.85 100.523 147.462 96.1103 147.228 93.7638L145.091 70.9756L144.229 61.7804L141.231 29.797C141.231 24.04 135.9 22.8673 133.235 23.0005H34.486H26.4901ZM58.4736 71.3755C58.4736 73.6143 60.3393 74.4405 61.2722 74.5738C62.4715 74.7071 64.8703 74.254 64.8703 71.3755C64.8703 68.497 62.4715 68.0439 61.2722 68.1771C60.3393 68.3104 58.4736 69.1366 58.4736 71.3755ZM94.0552 71.3755C94.0552 73.6143 95.9209 74.4405 96.8537 74.5738C98.0531 74.7071 100.452 74.254 100.452 71.3755C100.452 68.497 98.0531 68.0439 96.8537 68.1771C95.9209 68.3104 94.0552 69.1366 94.0552 71.3755ZM87.5294 82.2395C87.6209 81.7769 87.2507 81.3703 86.7791 81.3703H70.947C70.4754 81.3703 70.1052 81.7769 70.1967 82.2395C70.7793 85.1849 73.076 89.7659 78.8631 89.7659C84.6501 89.7659 86.9468 85.1849 87.5294 82.2395Z" fill="#A3E98A"/>
<path d="M147.228 93.7638C147.462 96.1103 146.85 100.523 142.99 101.545C145.069 101.217 149.227 99.5209 149.227 95.363L151.225 66.5779L145.091 70.9756L147.228 93.7638Z" fill="#58B072"/>
<path d="M133.235 23.0005C135.9 22.8673 141.231 24.04 141.231 29.797L144.229 61.7804L152.431 55.7835L155.623 17.0036C155.89 14.7381 154.904 10.2071 148.827 10.2071H80.6733C81.5358 7.14204 81.4217 1.01188 74.0655 1.01188H42.082C40.0831 0.878618 36.0052 1.81147 35.6853 6.60898C35.3655 11.4065 34.7525 19.5356 34.486 23.0005H133.235Z" fill="url(#paint0_linear_230_3317)"/>
<path d="M151.225 66.5779L167.512 53.4694C167.581 53.4134 167.642 53.3466 167.687 53.2695C168.345 52.1454 169.161 49.7316 167.617 48.1875C166.018 46.5883 163.752 47.5211 162.819 48.1875L152.431 55.7835L144.229 61.7804L145.091 70.9756L151.225 66.5779Z" fill="#A3E98A"/>
<path d="M2.0376 54.8812C2.07949 54.9506 2.13481 55.0099 2.19786 55.0608L24.6241 73.1718L23.6534 62.9798L6.50053 49.7866C5.83419 49.3869 4.10171 48.9871 2.50254 50.5862C0.968011 52.1208 1.51952 54.0234 2.0376 54.8812Z" fill="#A3E98A"/>
<path d="M26.4901 23.0005C20.733 23.0005 20.0934 27.5315 20.4932 29.797L23.6534 62.9798M26.4901 23.0005C27.4811 23.0005 30.3108 23.0005 34.486 23.0005M26.4901 23.0005H34.486M133.235 23.0005C135.9 22.8673 141.231 24.04 141.231 29.797L144.229 61.7804M133.235 23.0005C105.764 23.0005 54.5652 23.0005 34.486 23.0005M133.235 23.0005H34.486M141.231 101.76C135.793 101.76 66.7359 101.76 32.8868 101.76M141.231 101.76C141.881 101.76 142.465 101.683 142.99 101.545M141.231 101.76H32.8868M32.8868 101.76C31.1543 101.76 27.5295 100.8 26.8898 96.9622L24.6241 73.1718M142.99 101.545C146.85 100.523 147.462 96.1103 147.228 93.7638L145.091 70.9756M142.99 101.545C145.069 101.217 149.227 99.5209 149.227 95.363L151.225 66.5779M151.225 66.5779L167.512 53.4694C167.581 53.4134 167.642 53.3466 167.687 53.2695C168.345 52.1454 169.161 49.7316 167.617 48.1875C166.018 46.5883 163.752 47.5211 162.819 48.1875L152.431 55.7835M151.225 66.5779L145.091 70.9756M144.229 61.7804L145.091 70.9756M144.229 61.7804L152.431 55.7835M152.431 55.7835L155.623 17.0036C155.89 14.7381 154.904 10.2071 148.827 10.2071M148.827 10.2071C142.75 10.2071 100.859 10.2071 80.6733 10.2071M148.827 10.2071H80.6733M80.6733 10.2071C81.5357 7.14204 81.4217 1.01188 74.0655 1.01188M74.0655 1.01188C66.7093 1.01188 49.6781 1.01188 42.082 1.01188M74.0655 1.01188H42.082M42.082 1.01188C40.0831 0.878618 36.0052 1.81147 35.6853 6.60898C35.3655 11.4065 34.7525 19.5356 34.486 23.0005M24.6241 73.1718L2.19786 55.0608C2.13481 55.0099 2.07949 54.9506 2.0376 54.8812C1.51952 54.0234 0.968011 52.1208 2.50254 50.5862C4.10171 48.9871 5.83419 49.3869 6.50053 49.7866L23.6534 62.9798M24.6241 73.1718L23.6534 62.9798M105.649 27.3863H131.236M99.6523 27.3863H89.6575M61.2722 74.5738C60.3393 74.4405 58.4736 73.6143 58.4736 71.3755C58.4736 69.1366 60.3393 68.3104 61.2722 68.1771C62.4715 68.0439 64.8703 68.497 64.8703 71.3755C64.8703 74.254 62.4715 74.7071 61.2722 74.5738ZM96.8537 74.5738C95.9209 74.4405 94.0552 73.6143 94.0552 71.3755C94.0552 69.1366 95.9209 68.3104 96.8537 68.1771C98.0531 68.0439 100.452 68.497 100.452 71.3755C100.452 74.254 98.0531 74.7071 96.8537 74.5738ZM78.8631 89.7659C84.6501 89.7659 86.9468 85.1849 87.5294 82.2395C87.6209 81.7769 87.2507 81.3703 86.7791 81.3703H70.947C70.4754 81.3703 70.1052 81.7769 70.1967 82.2395C70.7793 85.1849 73.076 89.7659 78.8631 89.7659Z" stroke="#323C50" stroke-width="1.19938" stroke-linecap="round"/>
<path d="M96.8534 79.3594H103.25C103.65 79.3594 104.449 79.7592 104.449 80.5588C104.449 81.5183 103.517 82.158 103.25 82.158H96.9832C96.8972 82.158 96.8112 82.1456 96.7325 82.1111C96.3119 81.9266 95.654 81.4291 95.654 80.5588C95.654 79.5993 96.4536 79.3594 96.8534 79.3594Z" fill="#FF7561"/>
<path d="M54.8752 79.3594H61.2718C61.6716 79.3594 62.4712 79.7592 62.4712 80.5588C62.4712 81.5183 61.5384 82.158 61.2718 82.158H55.0049C54.919 82.158 54.833 82.1456 54.7543 82.1111C54.3336 81.9266 53.6758 81.4291 53.6758 80.5588C53.6758 79.5993 54.4754 79.3594 54.8752 79.3594Z" fill="#FF7561"/>
<path d="M96.8534 79.3594H103.25C103.65 79.3594 104.449 79.7592 104.449 80.5588C104.449 81.5183 103.517 82.158 103.25 82.158H96.9832C96.8972 82.158 96.8112 82.1456 96.7325 82.1111C96.3119 81.9266 95.654 81.4291 95.654 80.5588C95.654 79.5993 96.4536 79.3594 96.8534 79.3594Z" stroke="#FF7561" stroke-width="1.19938"/>
<path d="M54.8752 79.3594H61.2718C61.6716 79.3594 62.4712 79.7592 62.4712 80.5588C62.4712 81.5183 61.5384 82.158 61.2718 82.158H55.0049C54.919 82.158 54.833 82.1456 54.7543 82.1111C54.3336 81.9266 53.6758 81.4291 53.6758 80.5588C53.6758 79.5993 54.4754 79.3594 54.8752 79.3594Z" stroke="#FF7561" stroke-width="1.19938"/>
<defs>
<linearGradient id="paint0_linear_230_3317" x1="85" y1="1" x2="85" y2="101.76" gradientUnits="userSpaceOnUse">
<stop stop-color="#75CD79"/>
<stop offset="1" stop-color="#58B072"/>
</linearGradient>
</defs>
</svg>
