<svg width="25" height="24" viewBox="0 0 25 24" fill="none" xmlns="http://www.w3.org/2000/svg">
<path d="M15.7605 22.25H9.24047C4.33047 22.25 2.23047 20.15 2.23047 15.24V15.11C2.23047 10.67 3.98047 8.53003 7.90047 8.16003C8.30047 8.13003 8.68047 8.43003 8.72047 8.84003C8.76047 9.25003 8.46047 9.62003 8.04047 9.66003C4.90047 9.95003 3.73047 11.43 3.73047 15.12V15.25C3.73047 19.32 5.17047 20.76 9.24047 20.76H15.7605C19.8305 20.76 21.2705 19.32 21.2705 15.25V15.12C21.2705 11.41 20.0805 9.93003 16.8805 9.66003C16.4705 9.62003 16.1605 9.26003 16.2005 8.85003C16.2405 8.44003 16.5905 8.13003 17.0105 8.17003C20.9905 8.51003 22.7705 10.66 22.7705 15.13V15.26C22.7705 20.15 20.6705 22.25 15.7605 22.25Z" fill="white"/>
<path d="M12.5 15.63C12.09 15.63 11.75 15.29 11.75 14.88V2C11.75 1.59 12.09 1.25 12.5 1.25C12.91 1.25 13.25 1.59 13.25 2V14.88C13.25 15.3 12.91 15.63 12.5 15.63Z" fill="white"/>
<path d="M12.4998 16.75C12.3098 16.75 12.1198 16.68 11.9698 16.53L8.61984 13.18C8.32984 12.89 8.32984 12.41 8.61984 12.12C8.90984 11.83 9.38984 11.83 9.67984 12.12L12.4998 14.94L15.3198 12.12C15.6098 11.83 16.0898 11.83 16.3798 12.12C16.6698 12.41 16.6698 12.89 16.3798 13.18L13.0298 16.53C12.8798 16.68 12.6898 16.75 12.4998 16.75Z" fill="white"/>
</svg>
