<svg width="130" height="130" viewBox="0 0 130 130" fill="none" xmlns="http://www.w3.org/2000/svg">
<path d="M114.127 28.3291C105.406 27.4625 96.6854 26.8125 87.9104 26.325V26.2708L86.7187 19.2291C85.9062 14.2458 84.7146 6.77081 72.0396 6.77081H57.8479C45.2271 6.77081 44.0354 13.9208 43.1687 19.175L42.0312 26.1083C36.9937 26.4333 31.9562 26.7583 26.9187 27.2458L15.8687 28.3291C13.5937 28.5458 11.9687 30.55 12.1854 32.7708C12.402 34.9916 14.352 36.6166 16.627 36.4L27.6771 35.3166C56.0604 32.5 84.6604 33.5833 113.369 36.4541C113.531 36.4541 113.64 36.4541 113.802 36.4541C115.86 36.4541 117.648 34.8833 117.865 32.7708C118.027 30.55 116.402 28.5458 114.127 28.3291Z" fill="#E93C0D"/>
<path d="M104.162 44.0917C102.862 42.7375 101.074 41.9792 99.2328 41.9792H30.7661C28.9245 41.9792 27.0828 42.7375 25.837 44.0917C24.5911 45.4459 23.887 47.2875 23.9953 49.1834L27.3536 104.758C27.9495 112.992 28.7078 123.283 47.612 123.283H82.387C101.291 123.283 102.049 113.046 102.645 104.758L106.004 49.2375C106.112 47.2875 105.408 45.4459 104.162 44.0917ZM73.9911 96.1459H55.9536C53.7328 96.1459 51.8911 94.3042 51.8911 92.0834C51.8911 89.8625 53.7328 88.0209 55.9536 88.0209H73.9911C76.212 88.0209 78.0536 89.8625 78.0536 92.0834C78.0536 94.3042 76.212 96.1459 73.9911 96.1459ZM78.5411 74.4792H51.4578C49.237 74.4792 47.3953 72.6375 47.3953 70.4167C47.3953 68.1959 49.237 66.3542 51.4578 66.3542H78.5411C80.762 66.3542 82.6036 68.1959 82.6036 70.4167C82.6036 72.6375 80.762 74.4792 78.5411 74.4792Z" fill="#E93C0D"/>
</svg>
